# xmcd
#
# Track frame offsets:
#	150
#	17488
#	29830
#	49482
#	70019
#	83913
#	96513
#	111923
#
# Disc length: 1695 seconds
#
# Revision: 0
# Processed by: cddbd v1.5.1PL0 Copyright (c) Steve Scherf et al.
# Submitted via: audiograbber 1.83.01
#
DISCID=6c069d08
DTITLE=Rambling Hillbillies - Paradise
DYEAR=2004
DGENRE=Country
TTITLE0=The Mountain
TTITLE1=Do I Ever Cross Your Mind
TTITLE2=Dirty Old Town
TTITLE3=Sommarens Sista Servitris
TTITLE4=Paradise
TTITLE5=Move It On Over
TTITLE6=The Promise
TTITLE7=Röster
EXTD=One of Swedens Greatest Infamous Band. Recorded in Kåseberga 3-4 Juli 2004
EXTD=in The Rambling Studios. Produced by The Rambling Twins.
EXTT0=
EXTT1=
EXTT2=
EXTT3=
EXTT4=
EXTT5=
EXTT6=
EXTT7=
PLAYORDER=
